<?xml version="1.0" standalone="no"?>
<!DOCTYPE svg PUBLIC "-//W3C//DTD SVG 20010904//EN"
 "http://www.w3.org/TR/2001/REC-SVG-20010904/DTD/svg10.dtd">
<svg version="1.0" xmlns="http://www.w3.org/2000/svg"
 width="300.000000pt" height="300.000000pt" viewBox="0 0 300.000000 300.000000"
 preserveAspectRatio="xMidYMid meet">
<metadata>
Created by potrace 1.10, written by Peter Selinger 2001-2011
</metadata>
<g transform="translate(0.000000,300.000000) scale(0.100000,-0.100000)"
fill="#000000" stroke="none">
<path d="M1397 2811 c-50 -75 -137 -122 -397 -214 -316 -112 -411 -159 -530
-258 -65 -54 -164 -185 -153 -203 4 -6 31 -49 61 -94 29 -46 56 -90 58 -97 3
-7 -11 -34 -30 -59 -47 -62 -101 -159 -132 -238 -33 -83 -64 -240 -64 -320 0
-89 26 -234 61 -337 l29 -86 -40 -35 c-45 -40 -50 -67 -18 -98 19 -17 94 -50
156 -68 9 -3 1 -20 -27 -55 -23 -29 -41 -58 -41 -65 0 -30 53 -63 122 -74 37
-7 68 -14 68 -16 0 -3 -7 -19 -16 -35 -8 -17 -12 -38 -9 -47 6 -13 10 -8 20
20 7 20 15 51 17 69 l3 33 -60 11 c-33 6 -66 14 -73 19 -7 4 -19 3 -25 -3 -10
-8 -13 -2 -14 24 -1 19 3 38 8 41 5 3 9 -1 9 -8 1 -19 32 53 36 83 3 23 -3 28
-64 53 -37 15 -74 28 -82 29 -9 1 -16 13 -17 34 -3 35 5 41 25 21 9 -9 12 -9
12 1 0 22 42 73 55 67 10 -3 13 3 12 22 -2 21 2 26 16 24 11 -2 17 4 17 16 0
16 6 14 36 -14 19 -19 44 -34 53 -34 15 0 11 7 -16 36 -25 27 -31 40 -23 48 7
7 36 -3 103 -38 118 -62 124 -69 62 -62 -45 5 -43 3 22 -13 76 -20 93 -27 93
-40 0 -4 -24 -2 -52 6 -29 7 -64 12 -78 10 -17 -2 -4 -7 37 -16 70 -15 123
-43 123 -66 0 -20 -13 -19 -52 5 -18 11 -40 20 -48 20 -8 0 -41 14 -73 31 -52
27 -62 29 -87 19 -24 -10 -36 -8 -73 8 -28 12 -44 16 -44 8 1 -32 -5 -44 -29
-55 -14 -6 -30 -9 -35 -6 -5 4 -9 2 -9 -3 0 -9 89 -52 106 -52 5 0 17 -10 29
-23 11 -12 17 -18 12 -13 -11 15 -9 51 5 81 l11 25 18 -30 c21 -34 60 -56 114
-64 l40 -6 -33 13 c-49 19 -105 76 -91 93 9 11 16 11 38 -5 44 -31 111 -62
111 -51 0 14 13 12 36 -6 19 -15 19 -16 -1 -10 -17 5 -16 3 5 -15 l25 -21 -45
6 c-60 7 -25 -9 52 -24 31 -6 62 -17 68 -25 9 -11 4 -12 -27 -4 -21 5 -51 8
-68 8 -20 -1 -6 -7 40 -18 86 -21 115 -36 115 -60 0 -18 -1 -18 -37 0 -20 10
-53 22 -72 25 -20 4 -53 18 -73 31 -44 27 -73 30 -86 7 -8 -14 -14 -13 -63 5
-30 12 -55 21 -55 21 -1 0 1 -11 3 -24 5 -24 -13 -48 -53 -72 -18 -11 -17 -13
10 -23 15 -6 49 -12 74 -14 46 -2 46 -2 55 38 5 22 11 42 13 44 2 2 15 -10 29
-27 18 -21 53 -41 111 -63 81 -30 112 -49 81 -49 -17 0 -118 40 -132 52 -5 4
-20 8 -35 7 -21 0 -18 -4 20 -21 83 -37 274 -97 376 -117 170 -35 368 -47 545
-33 85 7 199 21 254 32 99 21 346 99 395 126 l25 13 -25 1 c-15 0 -30 -4 -35
-8 -15 -13 -115 -52 -133 -52 -29 0 1 18 85 50 53 20 91 41 107 61 14 16 27
29 30 29 3 0 9 -18 12 -41 4 -22 13 -43 20 -46 17 -6 122 16 129 28 4 5 -4 13
-17 18 -28 10 -53 53 -45 75 4 9 5 16 4 16 -1 0 -25 -9 -54 -20 -45 -17 -53
-17 -63 -5 -17 21 -38 19 -86 -9 -23 -13 -57 -26 -75 -30 -19 -3 -51 -15 -72
-26 -37 -20 -37 -20 -37 0 0 25 27 39 115 62 67 17 68 17 20 14 -27 -3 -59 -8
-70 -12 -18 -6 -18 -5 -5 8 15 15 112 41 199 53 59 8 98 30 121 67 l19 32 11
-29 c6 -15 12 -31 15 -35 2 -3 -3 -19 -11 -35 -12 -24 -12 -26 0 -15 18 14 40
4 32 -16 -3 -7 1 -26 9 -41 8 -15 15 -35 15 -43 0 -13 1 -13 10 0 11 18 12 16
15 -33 1 -25 -1 -35 -8 -28 -6 6 -19 6 -37 -1 -16 -5 -50 -13 -77 -16 -47 -7
-48 -8 -45 -41 2 -18 10 -49 17 -69 10 -28 14 -33 20 -20 3 9 -1 30 -9 47 -9
16 -16 32 -16 35 0 2 31 9 68 16 69 11 122 44 122 74 0 7 -16 34 -36 60 -20
26 -32 51 -28 56 5 4 32 15 61 24 56 19 97 46 114 77 9 17 4 26 -35 62 l-46
42 30 93 c17 50 37 134 46 185 41 234 -22 492 -167 683 -27 37 -48 72 -45 79
2 7 30 53 62 102 31 48 57 93 57 98 0 20 -70 120 -118 168 -109 109 -212 161
-521 265 -290 97 -400 156 -454 245 l-17 27 -26 -39z m67 -79 c71 -65 161
-107 408 -191 331 -112 448 -175 546 -293 80 -96 80 -89 3 -208 l-67 -105 51
-67 c69 -88 141 -229 167 -325 15 -58 21 -110 21 -203 1 -131 -8 -190 -50
-325 l-25 -80 -24 30 c-13 16 -29 42 -35 58 -19 45 -48 44 -129 -3 -39 -23
-92 -51 -117 -62 -79 -35 -158 -121 -145 -158 3 -8 15 -22 26 -31 21 -17 21
-18 1 -24 -57 -19 -74 -28 -103 -55 -44 -40 -42 -74 5 -122 20 -21 35 -40 32
-42 -8 -8 -240 -65 -319 -78 -97 -16 -471 -16 -570 0 -78 13 -311 70 -319 78
-3 2 12 22 33 43 42 43 43 59 7 118 -14 22 -32 35 -60 43 -49 13 -57 24 -37
52 9 12 16 31 16 40 0 36 -78 105 -173 153 -50 26 -107 56 -125 67 -39 24 -78
18 -88 -15 -4 -12 -18 -37 -32 -55 -30 -40 -31 -39 -66 80 -85 293 -32 578
153 821 l47 63 -68 104 c-66 102 -67 105 -51 130 102 157 272 262 618 380 211
73 330 129 382 180 21 20 40 38 42 39 2 0 23 -16 45 -37z m956 -1731 c0 -5
-15 -26 -34 -45 -19 -21 -28 -36 -20 -36 20 0 17 -17 -3 -29 -17 -10 -17 -10
0 -11 20 0 77 27 77 36 0 4 -11 3 -25 0 -14 -4 -25 -4 -25 -2 0 12 71 73 76
65 3 -5 2 -14 -1 -20 -4 -6 0 -9 11 -7 15 2 19 -3 19 -23 0 -18 4 -25 15 -22
14 4 57 -53 52 -69 -1 -5 3 -8 8 -8 6 0 10 5 10 10 0 6 4 10 10 10 17 0 7 -66
-10 -67 -8 0 -44 -13 -79 -28 -44 -19 -66 -24 -74 -16 -7 7 -1 13 19 21 60 22
104 43 104 51 0 5 -6 6 -13 3 -20 -7 -68 42 -60 61 5 14 -1 13 -38 -5 -37 -19
-48 -21 -75 -11 -29 11 -39 9 -90 -19 -31 -16 -64 -30 -73 -30 -9 0 -31 -9
-49 -20 -39 -24 -52 -25 -52 -5 0 22 39 43 116 62 51 14 62 19 41 21 -15 2
-50 -3 -77 -11 -28 -8 -50 -11 -50 -7 0 11 75 40 103 40 12 0 29 5 37 10 10 7
1 8 -30 4 -25 -4 -43 -4 -40 -1 3 3 46 28 95 56 87 48 125 61 125 42z m-75
-170 c6 -11 -37 -61 -54 -61 -6 0 -11 -4 -11 -9 0 -5 -28 -14 -63 -20 -85 -15
-97 -14 -72 5 11 8 20 20 20 26 0 6 6 13 14 16 8 3 11 0 7 -7 -4 -6 -5 -11 -3
-11 10 0 94 41 111 55 23 17 42 19 51 6z m126 -22 c8 -16 6 -19 -15 -19 -24 0
-52 31 -40 43 10 10 45 -6 55 -24z m-2031 11 c0 -12 -25 -30 -42 -30 -20 0
-21 1 -12 24 6 14 54 20 54 6z m275 -200 c39 -22 60 -26 49 -9 -4 8 1 9 17 4
28 -8 49 -25 32 -25 -6 0 -13 -9 -16 -20 -5 -20 -5 -20 -62 1 -59 22 -105 59
-105 86 0 14 2 14 24 -1 14 -8 41 -25 61 -36z m1515 32 c0 -10 -47 -51 -78
-69 -12 -7 -39 -16 -62 -19 -33 -5 -40 -4 -40 10 0 9 -5 16 -12 16 -19 0 3 17
32 25 19 5 21 4 10 -4 -32 -23 15 -10 70 18 58 30 80 36 80 23z m-1691 -16 c9
-11 8 -17 -8 -28 -12 -8 -18 -18 -14 -21 3 -4 2 -7 -3 -7 -12 0 -34 21 -34 31
0 10 29 39 39 39 5 0 14 -6 20 -14z m1825 -12 c8 -20 -4 -44 -20 -44 -8 0 -13
4 -11 9 1 5 -7 17 -18 25 -16 13 -17 17 -6 25 17 11 48 3 55 -15z"/>
<path d="M1307 2410 c-14 -36 -27 -39 -27 -5 0 16 -6 25 -16 25 -13 0 -15 -8
-9 -42 12 -84 17 -98 31 -98 10 0 13 7 8 25 -7 30 9 33 28 7 10 -14 26 -19 63
-20 57 0 75 10 75 45 0 18 -8 27 -30 34 -36 13 -40 33 -6 27 15 -3 27 0 30 8
7 17 -3 24 -34 24 -55 0 -67 -54 -17 -78 34 -17 36 -36 2 -28 -18 5 -27 2 -31
-8 -5 -12 -12 -8 -31 15 -23 27 -25 32 -12 57 7 15 15 30 17 35 2 4 -4 7 -13
7 -9 0 -22 -13 -28 -30z"/>
<path d="M1486 2394 c-10 -73 -8 -94 9 -94 9 0 15 9 15 25 0 19 5 25 21 25 16
0 20 -5 17 -27 -2 -20 2 -29 15 -31 12 -3 17 3 17 21 0 13 3 45 6 71 6 38 4
46 -10 46 -10 0 -16 -9 -16 -25 0 -18 -5 -25 -20 -25 -16 0 -20 7 -20 30 0 50
-26 37 -34 -16z"/>
<path d="M1195 2410 c-5 -8 2 -46 21 -112 3 -10 12 -18 21 -18 8 0 13 6 10 13
-2 6 -10 38 -17 70 -13 55 -22 68 -35 47z"/>
<path d="M1626 2354 c-29 -43 -35 -59 -26 -68 9 -8 14 -8 17 2 3 6 16 12 29
12 17 0 24 -6 24 -20 0 -11 7 -20 15 -20 16 0 19 55 6 114 -10 46 -25 41 -65
-20z"/>
<path d="M1097 2383 c-4 -3 -7 -38 -7 -77 l-1 -71 -30 58 c-16 31 -36 57 -44
57 -18 0 -18 -5 -4 -32 9 -16 8 -23 -2 -29 -21 -13 -27 -11 -34 11 -7 21 -35
28 -35 9 0 -6 12 -34 28 -63 15 -28 27 -52 28 -54 1 -1 8 0 17 4 15 5 15 8 1
29 -14 22 -14 24 4 34 16 8 21 6 30 -14 10 -22 14 -23 41 -12 18 7 31 19 31
29 0 21 39 35 50 18 4 -7 15 -10 25 -7 13 6 9 16 -27 61 -41 53 -57 64 -71 49z"/>
<path d="M1736 2318 c-24 -56 -26 -78 -8 -78 4 0 14 15 22 33 l14 32 3 -37 c7
-65 26 -65 58 2 22 47 26 63 17 72 -9 9 -15 5 -24 -20 -17 -43 -28 -40 -28 7
0 63 -23 58 -54 -11z"/>
<path d="M1852 2263 c-35 -59 -39 -73 -19 -73 6 0 26 24 42 52 39 69 38 65 23
71 -8 3 -26 -17 -46 -50z"/>
<path d="M1901 2230 c-28 -40 -38 -61 -30 -66 7 -4 17 0 24 9 18 24 25 21 25
-12 0 -16 6 -34 14 -41 13 -10 15 -4 18 36 3 45 5 48 36 56 28 7 32 12 22 23
-10 13 -16 12 -42 -1 -33 -17 -47 -14 -23 6 8 7 15 18 15 26 0 32 -20 19 -59
-36z"/>
<path d="M867 2262 c-35 -39 -10 -79 43 -67 34 7 44 -13 10 -22 -26 -7 -26
-33 -1 -33 25 0 51 26 51 49 0 29 -25 44 -60 36 -34 -8 -44 13 -10 22 12 3 19
11 17 17 -6 19 -32 18 -50 -2z"/>
<path d="M732 2147 l-22 -23 49 -48 c29 -29 54 -45 61 -41 8 5 7 12 -5 25 -14
15 -14 18 0 30 20 17 19 43 -3 63 -26 23 -55 21 -80 -6z m64 -18 c3 -6 1 -16
-4 -21 -13 -13 -45 8 -36 23 7 12 31 11 40 -2z"/>
<path d="M2046 2145 c-12 -12 -13 -22 -6 -41 13 -33 13 -44 -1 -44 -6 0 -13 9
-16 20 -6 23 -33 27 -33 5 0 -8 9 -24 20 -35 15 -15 25 -17 42 -11 19 7 23 15
21 50 -2 43 9 53 26 24 8 -14 12 -15 22 -6 10 10 9 17 -6 33 -22 24 -48 26
-69 5z"/>
<path d="M1360 2134 c-153 -25 -265 -75 -358 -160 -82 -74 -135 -146 -182
-248 -53 -112 -70 -182 -77 -316 -22 -426 261 -784 636 -807 174 -10 326 47
462 175 174 163 260 386 246 637 -10 167 -59 310 -152 440 -89 125 -243 233
-375 263 -55 13 -166 22 -200 16z m231 -74 c73 -25 155 -72 218 -127 l44 -39
-154 -234 c-84 -129 -165 -257 -181 -285 -15 -27 -28 -43 -28 -35 0 13 -1 13
-10 0 -13 -21 -13 5 0 30 6 11 6 21 1 24 -5 4 -13 -8 -16 -26 -6 -24 -3 -35
10 -44 10 -8 22 -11 26 -8 5 3 9 0 9 -6 0 -6 4 -9 9 -6 5 3 12 -6 15 -20 7
-25 8 -26 27 -9 22 21 17 34 -6 15 -8 -7 -15 -8 -15 -2 0 5 7 15 15 22 8 7 15
17 15 23 0 5 -9 2 -20 -8 -12 -11 -20 -13 -20 -6 0 7 -4 9 -10 6 -12 -7 -13 5
-1 23 4 7 13 12 20 10 7 -2 84 106 173 242 87 135 163 248 167 253 4 4 28 -28
54 -70 217 -362 117 -837 -221 -1052 -48 -31 -55 -33 -80 -21 l-27 13 27 7
c14 4 42 21 62 36 28 23 32 30 21 37 -9 4 -25 5 -38 1 -20 -6 -21 -5 -7 11 14
17 13 18 -30 12 -24 -3 -47 -12 -49 -19 -7 -23 -68 -78 -86 -78 -25 0 41 80
77 94 17 6 26 16 23 24 -3 7 0 22 5 32 13 24 -17 58 -59 66 -17 4 -32 16 -39
32 -10 22 -11 23 -8 5 5 -27 -2 -29 -20 -6 -7 10 -16 14 -20 10 -5 -4 -2 -12
6 -17 11 -7 6 -10 -17 -10 -41 0 -41 8 -8 114 23 69 24 85 15 134 -5 30 -19
69 -30 86 l-20 31 0 -46 c0 -25 -9 -72 -20 -104 -24 -69 -26 -139 -5 -179 8
-15 15 -30 15 -32 0 -2 -20 -4 -45 -4 -55 0 -122 -26 -130 -50 -3 -9 -3 -36 0
-59 5 -39 4 -41 -14 -31 -29 15 -44 12 -37 -6 5 -13 1 -15 -18 -10 -14 3 -27
2 -30 -3 -7 -11 60 -71 79 -71 25 0 17 -19 -10 -26 -36 -9 -139 61 -220 148
-71 77 -143 211 -170 317 -54 212 -12 457 109 639 26 40 51 72 54 72 14 -1
327 -494 325 -512 -2 -10 5 -31 14 -46 17 -26 17 -27 -2 -12 -17 14 -18 13
-12 -5 6 -16 2 -14 -17 7 -13 15 -27 24 -30 21 -4 -4 6 -20 21 -37 16 -17 20
-24 10 -17 -22 17 -33 9 -12 -9 15 -13 14 -14 84 50 9 8 26 14 39 12 17 -3 22
1 22 20 0 18 -2 20 -10 8 -7 -11 -10 -7 -10 18 0 18 -4 31 -9 28 -4 -3 -6 -18
-3 -32 3 -18 1 -25 -6 -20 -6 3 -12 0 -15 -6 -2 -7 -7 2 -11 20 -5 19 -80 142
-167 275 -88 133 -164 250 -169 259 -21 35 160 146 284 174 82 19 214 12 297
-16z m-144 -910 c-3 -30 -12 -71 -21 -90 -9 -19 -14 -27 -12 -18 3 10 8 41 12
70 7 49 6 51 -9 36 -9 -9 -15 -22 -12 -30 2 -7 1 -38 -4 -68 l-7 -55 -8 45
c-7 41 7 107 41 200 10 30 25 -34 20 -90z m-47 -205 c0 -12 -84 -46 -127 -52
-48 -6 -48 -6 -30 15 10 11 35 25 55 30 40 11 102 15 102 7z m138 -13 c30 -9
53 -21 53 -27 -1 -27 -102 -9 -143 25 l-23 19 30 0 c17 0 54 -8 83 -17z m-103
-13 c9 -13 47 -28 110 -43 l50 -12 -29 -27 c-16 -15 -32 -24 -37 -21 -5 3 -9
-4 -9 -16 0 -24 -42 -70 -64 -70 -22 0 0 59 31 83 13 10 23 23 23 29 0 7 -11
1 -25 -12 -14 -13 -26 -22 -28 -19 -1 2 -12 24 -23 47 l-20 44 -19 -39 c-11
-21 -21 -40 -22 -42 -1 -2 -18 7 -37 19 l-36 22 0 -21 c0 -24 -4 -25 -29 -11
-40 21 -32 38 22 50 29 6 66 19 82 30 34 22 51 25 60 9z m7 -136 c0 -20 -7
-42 -15 -50 -12 -13 -16 -12 -31 2 -21 21 -21 67 0 107 l16 32 15 -28 c8 -16
15 -44 15 -63z m-85 27 c6 0 13 -18 15 -39 3 -37 2 -39 -22 -36 -14 2 -30 4
-36 4 -16 1 -74 62 -74 77 0 22 52 -8 70 -40 7 -14 17 -26 22 -26 5 0 2 10 -6
22 -9 12 -16 33 -16 47 0 23 1 23 18 8 10 -10 23 -17 29 -17z m-99 -44 c52
-50 50 -61 -13 -71 -37 -6 -39 -5 -21 9 11 9 25 16 32 16 7 0 16 4 19 10 4 6
-5 8 -22 4 -20 -4 -36 1 -56 16 -16 12 -26 25 -23 27 3 3 17 -4 32 -16 15 -11
32 -21 38 -21 6 0 -4 12 -21 26 -18 14 -33 30 -33 35 0 19 23 7 68 -35z m367
10 c-25 -33 -44 -46 -67 -46 -5 0 5 18 22 40 18 22 40 40 51 40 19 0 18 -2 -6
-34z m26 -16 c-30 -26 -49 -26 -26 0 10 11 25 20 34 20 12 -1 10 -5 -8 -20z
m-21 -69 c8 -6 -83 7 -105 15 -13 5 -16 4 -11 -4 10 -16 -4 -14 -34 4 -20 12
-21 15 -5 11 11 -2 41 -1 65 3 43 6 49 4 90 -29z m-180 18 c0 -11 -46 -23 -59
-14 -21 12 -11 21 24 22 19 1 35 -3 35 -8z m-11 -30 c23 17 29 17 46 5 10 -8
27 -14 37 -14 10 0 18 -4 18 -9 0 -14 -119 -17 -236 -6 -101 10 -107 11 -77
22 20 7 35 8 38 2 9 -13 46 -11 75 5 21 12 27 12 48 -5 24 -18 25 -18 51 0z
m151 -4 l45 -14 -44 2 c-25 1 -46 7 -49 15 -5 15 -7 15 48 -3z"/>
<path d="M1445 1983 c-41 -13 -65 -14 -140 -5 -49 5 -92 8 -94 6 -2 -2 0 -55
4 -119 l7 -116 37 1 c58 3 61 1 61 -26 0 -20 4 -25 16 -20 9 3 20 6 26 6 5 0
8 10 6 23 -2 12 -9 21 -17 19 -8 -2 -21 0 -30 4 -14 5 -13 7 4 14 11 5 34 9
50 9 22 1 26 4 16 10 -11 7 -10 10 7 13 19 3 20 5 6 37 -15 36 -26 36 -28 0
-1 -27 -26 -38 -26 -12 0 11 -4 23 -10 29 -5 5 -6 22 -2 39 8 27 13 30 56 33
37 2 46 6 42 18 -3 8 -2 14 3 14 7 0 22 -179 16 -188 -1 -1 -20 -3 -42 -4 -57
-2 -35 -22 40 -38 32 -6 55 -15 52 -20 -6 -10 -83 -7 -110 5 -17 8 -18 7 -7
-7 11 -14 8 -17 -21 -22 -38 -7 -70 1 -61 15 3 5 -4 9 -15 9 -23 0 -28 -15 -8
-23 6 -3 -3 -6 -21 -6 -30 -1 -33 -3 -26 -23 9 -28 34 -49 54 -45 8 2 81 17
163 32 81 16 147 33 147 37 0 4 -15 11 -32 16 -26 8 -29 11 -16 17 11 4 24 1
33 -9 17 -17 31 -18 80 -7 29 7 28 8 -22 21 -29 8 -53 17 -53 22 0 15 -21 8
-45 -17 -22 -22 -25 -22 -25 -5 0 10 7 26 16 34 14 15 14 16 -2 16 -13 0 -15
3 -7 11 7 7 8 23 2 47 -11 47 -10 121 1 147 7 16 9 17 9 3 1 -9 11 -19 24 -21
l22 -4 -22 -2 c-29 -1 -30 -21 -2 -21 11 0 18 -4 14 -10 -3 -5 -13 -6 -22 -3
-14 6 -15 -1 -9 -52 4 -33 8 -60 9 -61 1 0 13 -4 27 -7 l25 -6 -2 102 -1 102
-54 2 c-29 1 -75 -6 -103 -14z m-115 -51 c0 -8 -6 -12 -12 -9 -19 7 -19 -45 0
-66 14 -16 14 -20 -1 -50 l-16 -32 0 27 c-1 15 -12 48 -25 75 -20 38 -26 44
-32 30 -4 -12 0 -22 11 -31 9 -7 15 -21 13 -32 -3 -16 -7 -14 -21 13 -22 42
-17 75 13 80 13 2 26 5 28 8 10 9 42 -1 42 -13z m169 -85 c-3 -73 -12 -112
-21 -96 -2 2 -2 48 0 103 2 68 7 95 14 88 6 -6 9 -45 7 -95z"/>
<path d="M1029 1533 c-4 -61 8 -116 22 -108 13 9 11 43 -3 48 -10 4 -10 8 1
15 9 7 11 19 7 36 -7 29 -25 35 -27 9z"/>
<path d="M1856 1506 c-9 -24 -23 -47 -31 -50 -11 -4 -13 -19 -9 -68 7 -82 14
-87 14 -10 0 33 5 64 10 67 9 6 50 87 50 99 0 4 -4 6 -9 6 -4 0 -16 -20 -25
-44z"/>
<path d="M1077 1514 c-4 -4 -7 -27 -7 -52 0 -38 2 -43 18 -37 14 5 15 4 5 -6
-16 -16 -17 -33 -1 -23 6 4 8 3 4 -4 -3 -6 -1 -14 5 -18 9 -5 10 10 5 62 -7
68 -16 91 -29 78z"/>
<path d="M1187 1493 c12 -45 7 -78 -17 -117 -29 -48 -36 -39 -16 20 19 55 20
68 6 59 -18 -11 -40 -76 -34 -100 3 -13 0 -26 -7 -31 -8 -5 -11 -2 -7 8 6 15
-26 51 -36 41 -3 -4 -6 -1 -6 6 0 7 -4 10 -9 6 -5 -3 -12 3 -14 12 -4 14 -5
13 -6 -4 0 -13 3 -23 8 -23 5 0 11 -9 14 -21 5 -17 9 -19 26 -10 17 10 20 9
15 -4 -3 -8 -10 -13 -14 -10 -5 3 -11 -1 -13 -7 -4 -9 -6 -9 -6 1 -1 11 -4 10
-14 -4 -13 -16 -14 -15 -11 16 3 28 2 30 -4 9 -4 -14 -15 -25 -24 -25 -29 0
-31 -14 -4 -21 63 -15 135 24 183 101 7 11 6 2 -3 -20 -9 -22 -17 -45 -17 -52
0 -7 -5 -11 -11 -10 -6 1 -10 -4 -9 -10 2 -7 0 -12 -5 -11 -13 4 -52 -13 -48
-21 8 -13 -88 5 -121 22 -38 20 -58 45 -22 27 24 -11 24 -11 -1 9 -36 30 -53
26 -98 -23 -59 -64 -65 -80 -42 -101 11 -10 22 -16 23 -14 36 45 57 79 57 90
0 8 4 20 9 28 8 12 17 8 50 -22 23 -20 47 -37 54 -37 7 0 18 -9 25 -21 13 -20
14 -20 33 -3 10 9 19 14 19 10 0 -17 95 63 111 94 23 42 24 108 5 155 -18 42
-29 46 -19 8z m-301 -198 c-7 -37 -46 -89 -58 -77 -7 7 2 26 23 56 19 25 35
45 37 46 1 0 0 -11 -2 -25z"/>
<path d="M994 1496 c-4 -10 -4 -42 0 -73 6 -48 4 -54 -8 -44 -8 7 -22 29 -32
49 -13 26 -19 32 -22 20 -2 -10 4 -32 13 -50 18 -37 59 -91 52 -67 -3 8 1 26
9 40 13 24 13 24 14 2 0 -13 -4 -23 -10 -23 -5 0 -7 -7 -4 -15 12 -30 24 -14
24 30 0 36 -3 45 -17 45 -15 0 -16 2 -3 10 13 9 13 11 0 20 -9 6 -10 10 -3 10
6 0 10 11 9 25 -4 33 -14 42 -22 21z"/>
<path d="M1694 1460 c-30 -12 -35 -22 -54 -116 l-17 -83 106 2 c58 2 142 0
186 -3 44 -4 83 -4 87 -1 9 8 -32 181 -42 181 -5 0 0 -33 11 -72 10 -40 19
-76 19 -79 0 -4 -23 0 -52 8 -36 11 -60 13 -82 6 -20 -6 -41 -5 -58 1 -20 7
-46 6 -93 -6 -63 -15 -65 -15 -60 3 3 11 8 29 11 42 8 33 36 97 43 97 3 1 29
7 56 15 l50 14 -45 0 c-25 0 -55 -4 -66 -9z"/>
<path d="M1217 1283 c-4 -4 5 -17 20 -29 l28 -23 -25 5 c-25 5 -25 5 -5 -12
20 -17 17 -17 -30 2 -8 3 -15 2 -15 -4 0 -6 14 -15 31 -21 39 -13 36 -14 36 2
0 6 4 19 7 27 7 18 -36 65 -47 53z"/>
<path d="M1578 1273 c-8 -10 -15 -26 -15 -35 0 -20 0 -20 21 -12 22 8 20 25
-1 18 -14 -4 -13 -1 5 14 12 11 22 23 22 26 0 12 -17 6 -32 -11z"/>
<path d="M1068 1213 c-22 -24 -23 -43 -3 -43 18 0 28 21 23 46 -3 14 -5 14
-20 -3z"/>
<path d="M1598 1218 c-30 -10 -33 -15 -19 -37 7 -10 13 -11 27 -2 17 9 17 10
-6 11 -23 1 -23 2 7 13 17 7 35 15 39 20 10 10 -15 8 -48 -5z"/>
<path d="M1595 1160 c-15 -7 -10 -9 23 -9 23 -1 42 4 42 9 0 12 -37 12 -65 0z"/>
<path d="M1213 1113 c-18 -2 -33 -9 -33 -14 0 -6 15 -7 38 -4 27 5 33 4 22 -4
-13 -10 -13 -11 0 -11 8 -1 3 -7 -12 -16 -16 -8 -28 -20 -28 -25 0 -7 10 -5
25 5 31 21 41 20 24 -1 -13 -15 -12 -15 11 -4 25 12 24 12 -2 -13 -16 -14 -28
-31 -28 -37 0 -7 14 0 32 17 18 16 26 21 19 12 -7 -9 -10 -22 -7 -27 4 -5 2
-12 -4 -16 -5 -3 -10 -11 -10 -17 0 -7 7 -5 18 3 9 8 32 15 50 14 17 -1 32 2
32 7 0 4 -6 8 -13 8 -8 0 -21 8 -30 18 -43 46 -57 62 -57 67 0 3 0 14 0 25 0
11 -3 19 -7 18 -5 0 -23 -3 -40 -5z"/>
<path d="M1580 1108 c0 -4 6 -8 13 -8 6 0 22 -3 35 -6 12 -4 22 -2 22 4 0 5
-16 12 -35 14 -19 2 -35 0 -35 -4z"/>
<path d="M1565 1060 c3 -5 1 -10 -6 -10 -8 0 -8 -4 1 -15 7 -8 17 -15 22 -15
6 0 5 7 -2 15 -16 20 -1 19 21 -1 11 -10 19 -12 23 -5 4 6 -7 17 -23 26 -35
17 -45 19 -36 5z"/>
<path d="M660 2059 c-12 -16 -21 -32 -19 -33 14 -13 100 -76 103 -76 3 0 14
14 27 31 14 20 18 34 11 41 -6 6 -15 2 -25 -12 -19 -28 -42 -18 -25 10 9 15
10 22 1 31 -8 8 -14 6 -23 -10 -6 -12 -16 -19 -21 -15 -6 4 -5 14 5 29 14 21
12 35 -5 35 -4 0 -17 -14 -29 -31z"/>
<path d="M2101 2036 c-52 -18 -61 -24 -49 -34 8 -6 18 -9 21 -5 12 12 37 -19
32 -41 -3 -12 3 -31 14 -45 18 -24 20 -24 45 -8 37 25 39 21 13 -20 -37 -58
-24 -66 43 -30 33 18 60 38 60 45 0 16 -5 15 -40 -3 -35 -18 -37 -13 -9 26 36
51 18 62 -46 27 -31 -16 -58 -28 -61 -26 -2 3 13 29 34 59 37 53 43 80 19 78
-7 0 -41 -11 -76 -23z"/>
<path d="M596 1964 c-9 -20 -16 -37 -14 -38 2 -1 27 -16 56 -34 29 -18 54 -32
55 -32 2 0 11 16 21 35 15 26 17 38 8 47 -8 8 -14 4 -23 -15 -7 -15 -15 -27
-19 -27 -15 0 -19 14 -9 32 16 30 -1 44 -22 17 -21 -28 -36 -20 -19 10 11 21
6 41 -9 41 -4 0 -15 -16 -25 -36z"/>
<path d="M557 1868 c-14 -12 -42 -68 -35 -73 9 -5 112 -45 118 -45 4 0 13 14
20 30 16 39 1 76 -36 90 -33 13 -47 13 -67 -2z m64 -28 c21 -12 25 -35 8 -45
-11 -7 -69 13 -69 24 0 10 22 31 33 31 4 0 17 -5 28 -10z"/>
<path d="M2241 1826 c-6 -7 -10 -22 -9 -32 2 -11 -1 -20 -7 -22 -5 -1 -11 9
-13 23 -5 35 -32 33 -32 -3 0 -34 16 -52 47 -52 23 0 43 25 40 50 -3 25 18 27
21 3 2 -13 10 -23 18 -23 17 0 19 41 2 58 -16 16 -53 15 -67 -2z"/>
<path d="M502 1744 c2 -13 14 -21 38 -24 38 -6 33 -14 -17 -24 -42 -9 -51 -34
-15 -42 15 -3 43 -10 62 -15 47 -12 50 -11 50 6 0 8 -8 15 -17 15 -10 0 -24 4
-32 9 -11 7 -3 12 27 22 23 7 42 17 42 24 0 6 -26 18 -57 25 -32 7 -64 15 -72
18 -9 3 -12 -1 -9 -14z"/>
<path d="M2307 1731 c4 -16 -3 -20 -46 -26 -41 -6 -51 -11 -51 -26 0 -20 18
-20 78 2 31 12 32 11 32 -6 0 -8 8 -15 19 -15 17 0 17 4 8 45 -7 32 -15 45
-28 45 -12 0 -16 -6 -12 -19z"/>
<path d="M2330 1633 c-99 -12 -109 -14 -103 -29 4 -10 13 -14 28 -10 16 4 25
1 29 -10 9 -23 -1 -34 -30 -34 -16 0 -24 -5 -21 -12 2 -7 9 -13 15 -12 7 1 37
2 67 3 46 1 55 4 55 19 0 13 -8 18 -27 17 -18 0 -29 6 -31 18 -3 12 3 17 22
17 14 0 27 4 30 8 9 15 -9 27 -34 25z"/>
<path d="M533 1602 c-98 -24 -89 -38 65 -99 6 -3 12 2 12 10 0 8 -7 17 -15 21
-19 7 -20 45 -1 52 18 7 29 34 13 33 -7 -1 -40 -8 -74 -17z"/>
<path d="M2230 1495 c0 -8 7 -15 15 -15 9 0 15 -9 15 -24 0 -13 -7 -26 -15
-30 -8 -3 -15 -13 -15 -22 0 -10 5 -14 15 -10 9 3 41 13 71 22 71 20 68 38
-10 70 -70 28 -76 29 -76 9z"/>
<path d="M470 1486 c0 -8 20 -19 48 -26 l47 -13 -47 -15 c-34 -11 -48 -21 -48
-34 0 -17 3 -17 53 3 28 12 60 24 70 27 34 9 12 34 -48 53 -72 23 -75 23 -75
5z"/>
<path d="M589 1383 c-1 -5 -2 -18 -3 -30 -1 -30 -20 -34 -24 -5 -2 12 -10 22
-18 22 -9 0 -14 -8 -12 -22 2 -13 -1 -24 -7 -26 -5 -1 -11 9 -13 23 -5 41 -27
23 -25 -20 2 -21 4 -40 6 -42 2 -1 33 3 68 10 68 14 67 13 54 75 -5 21 -23 31
-26 15z"/>
<path d="M2217 1326 c-4 -9 2 -16 15 -19 14 -4 19 -11 14 -22 -9 -24 10 -52
39 -57 33 -7 53 10 61 48 6 30 5 31 -43 43 -26 7 -55 14 -64 17 -9 2 -19 -2
-22 -10z m103 -45 c0 -4 -5 -12 -12 -19 -14 -14 -39 3 -32 23 5 13 44 9 44 -4z"/>
<path d="M611 1281 c-10 -6 -10 -13 -2 -28 10 -19 6 -33 -10 -33 -3 0 -9 9
-12 20 -3 11 -12 20 -21 20 -12 0 -14 -5 -6 -25 7 -19 6 -25 -4 -25 -8 0 -16
9 -19 20 -3 11 -13 20 -22 20 -12 0 -15 -5 -11 -16 3 -9 9 -27 12 -41 5 -17
12 -23 23 -20 9 3 37 11 64 18 50 14 55 24 34 71 -8 20 -16 25 -26 19z"/>
<path d="M2187 1202 c-23 -26 -21 -55 6 -80 47 -44 127 -14 113 42 -7 27 -51
56 -84 56 -10 0 -26 -8 -35 -18z m77 -31 c21 -24 13 -41 -18 -41 -28 0 -50 24
-42 45 8 21 40 19 60 -4z"/>
<path d="M595 1159 c-22 -10 -44 -20 -48 -21 -4 -2 -3 -18 3 -35 12 -34 46
-37 35 -2 -4 13 2 22 25 34 33 17 52 13 43 -10 -3 -10 1 -15 11 -15 25 0 31
28 11 50 -22 24 -28 24 -80 -1z"/>
<path d="M2136 1105 c-5 -14 87 -75 113 -75 29 0 5 28 -48 57 -46 25 -61 29
-65 18z"/>
<path d="M410 916 c0 -8 64 -36 82 -36 7 0 3 6 -8 14 -24 17 -74 31 -74 22z"/>
<path d="M525 715 c17 -8 41 -14 55 -14 23 0 22 1 -9 14 -18 8 -43 15 -55 14
-18 0 -16 -3 9 -14z"/>
<path d="M2275 715 c-29 -14 -29 -14 -5 -14 14 0 39 6 55 14 29 13 29 13 5 13
-14 0 -38 -6 -55 -13z"/>
<path d="M596 516 c7 -29 -21 -93 -48 -109 -10 -7 -18 -15 -18 -19 0 -10 197
-84 301 -112 239 -65 563 -92 814 -67 220 21 463 82 633 157 55 24 56 25 33
37 -33 16 -63 75 -57 109 l5 27 -52 -21 c-268 -108 -477 -148 -782 -148 -304
0 -509 39 -783 149 l-52 21 6 -24z m98 -48 c-5 -8 -2 -9 11 -5 17 7 78 -9 103
-27 7 -5 36 -14 65 -21 l52 -12 -35 -10 c-28 -8 -37 -7 -47 5 -16 20 -40 9
-55 -25 -24 -53 -34 -57 -86 -38 -26 10 -54 24 -63 31 -8 8 -20 14 -26 14 -27
0 -18 71 12 92 17 13 77 9 69 -4z m1551 -18 c18 -34 12 -70 -11 -70 -8 0 -14
-4 -14 -9 0 -7 -75 -41 -91 -41 -4 0 -14 20 -23 45 -18 47 -32 54 -66 33 -10
-7 -23 -9 -27 -4 -9 9 26 38 38 31 4 -3 9 -1 11 3 5 14 89 40 130 41 32 1 40
-3 53 -29z m-263 -52 c-15 -15 -16 -53 -2 -79 9 -16 7 -19 -9 -19 -24 0 -37
18 -23 32 7 7 5 18 -4 36 -16 32 -10 42 24 42 20 0 23 -3 14 -12z m97 -10 c19
-53 22 -68 11 -68 -6 0 -14 10 -19 23 -19 52 -22 67 -11 67 6 0 14 -10 19 -22z
m-199 -3 c7 -8 21 -15 31 -15 11 0 19 -4 19 -10 0 -5 -5 -10 -11 -10 -6 0 -9
-6 -6 -12 19 -53 19 -57 -9 -55 -39 3 -54 32 -29 53 18 14 18 15 2 10 -10 -3
-23 -6 -28 -6 -6 0 -7 -15 -3 -35 6 -34 -8 -50 -19 -22 -4 9 -7 9 -14 0 -11
-15 -38 0 -29 16 4 6 5 11 2 11 -2 0 -12 3 -22 7 -15 5 -16 2 -11 -30 3 -20 2
-37 -3 -37 -10 0 -20 25 -20 51 0 10 -5 19 -11 19 -7 0 -9 -12 -5 -35 4 -21 3
-35 -3 -35 -6 0 -13 16 -17 35 -3 19 -10 32 -15 29 -5 -3 -7 -10 -3 -15 3 -5
0 -16 -6 -24 -7 -8 -10 -22 -6 -30 7 -18 -3 -19 -26 -1 -22 16 -23 26 -2 26
11 0 8 7 -10 24 -15 13 -26 26 -26 30 0 3 27 6 60 6 61 0 79 12 38 25 -21 7
-22 7 -4 12 11 3 25 -2 32 -11 12 -17 66 -16 129 3 28 9 29 10 8 16 -13 4 -20
11 -17 16 8 13 20 11 34 -6z m-1049 -8 c-6 -41 -15 -67 -23 -65 -10 4 -10 4
-1 48 3 17 10 29 15 28 5 -2 9 -7 9 -11z m180 -3 c11 -13 9 -14 -14 -9 -16 4
-27 3 -27 -3 0 -8 144 -32 198 -32 12 0 22 -4 22 -10 0 -5 -4 -10 -10 -10 -5
0 -10 -16 -10 -35 0 -19 -4 -35 -10 -35 -5 0 -10 16 -10 35 0 19 -4 35 -10 35
-5 0 -10 -15 -10 -34 0 -33 -1 -33 -32 -27 -29 6 -33 11 -33 39 0 42 -18 35
-26 -9 -4 -27 -7 -30 -13 -17 -5 10 -12 16 -16 13 -5 -3 -16 2 -25 11 -15 15
-15 18 2 36 17 20 17 20 -2 17 -11 -3 -21 -13 -23 -24 -6 -35 -12 -46 -21 -40
-6 3 -6 17 -1 35 5 17 5 32 0 35 -13 8 21 43 41 44 9 1 22 -6 30 -15z m1008
-15 c6 -18 11 -39 11 -48 0 -27 -27 9 -35 47 -9 42 9 42 24 1z m-1129 -33 c-6
-20 -16 -36 -21 -36 -12 0 -11 5 3 52 7 24 15 35 21 29 6 -6 5 -23 -3 -45z
m407 11 c4 -6 -3 -8 -21 -3 -15 4 -26 2 -26 -4 0 -6 40 -10 108 -9 59 1 99 3
90 6 -22 6 -24 23 -3 23 9 0 18 -7 21 -15 5 -11 21 -15 60 -15 30 0 54 -4 54
-10 0 -5 -4 -10 -8 -10 -4 0 -6 -16 -4 -35 3 -21 0 -35 -7 -35 -6 0 -11 9 -11
20 0 11 -4 20 -10 20 -5 0 -10 -5 -10 -11 0 -5 -4 -7 -10 -4 -17 10 -11 25 10
25 11 0 20 5 20 10 0 6 -13 10 -30 10 -28 0 -30 -3 -30 -35 0 -19 -4 -35 -10
-35 -5 0 -10 5 -10 11 0 5 -4 8 -9 4 -5 -3 -17 2 -26 11 -12 12 -13 19 -4 30
9 11 7 14 -11 14 -20 0 -22 -3 -15 -36 5 -28 3 -35 -7 -31 -7 2 -12 10 -10 16
1 7 -5 11 -14 9 -9 -2 -19 3 -21 10 -3 7 4 12 16 12 12 0 21 5 21 10 0 6 -13
10 -30 10 -28 0 -30 -3 -30 -35 0 -19 -4 -35 -10 -35 -5 0 -10 4 -10 10 0 5
-6 7 -12 5 -20 -7 -42 11 -35 28 3 9 16 17 29 20 18 3 16 5 -8 6 -33 1 -44
-12 -44 -50 0 -12 -4 -17 -11 -13 -6 3 -9 19 -6 34 3 15 1 32 -6 39 -8 8 -8
11 1 11 7 0 12 6 12 14 0 25 52 28 67 3z"/>
<path d="M1110 312 c0 -7 -8 -12 -17 -12 -15 0 -15 -2 -4 -9 11 -7 10 -10 -5
-14 -17 -4 -16 -5 3 -6 21 -1 42 33 29 46 -3 4 -6 1 -6 -5z"/>
<path d="M470 385 c0 -17 35 -51 72 -71 94 -49 336 -119 520 -151 147 -26 578
-25 728 0 223 38 508 128 562 179 15 14 28 34 28 45 -1 16 -2 16 -19 -4 -29
-35 -206 -101 -391 -147 -428 -107 -938 -78 -1330 75 -58 22 -113 43 -122 46
-10 3 -20 14 -23 24 -7 22 -25 25 -25 4z"/>
</g>
</svg>
